<?xml version="1.0" standalone="no"?>
<!DOCTYPE svg PUBLIC "-//W3C//DTD SVG 20010904//EN"
 "http://www.w3.org/TR/2001/REC-SVG-20010904/DTD/svg10.dtd">
<svg version="1.0" xmlns="http://www.w3.org/2000/svg"
 width="100.000000pt" height="100.000000pt" viewBox="0 0 100.000000 100.000000"
 preserveAspectRatio="xMidYMid meet">
<metadata>
Created by potrace 1.14, written by Peter Selinger 2001-2017
</metadata>
<g transform="translate(0.000000,100.000000) scale(0.100000,-0.100000)"
fill="#000000" stroke="none">
<path d="M818 883 c-27 -6 -31 -35 -8 -57 l21 -21 19 23 c28 34 10 64 -32 55z"/>
<path d="M854 769 c-10 -17 13 -36 27 -22 12 12 4 33 -11 33 -5 0 -12 -5 -16
-11z"/>
<path d="M114 719 c-10 -17 13 -36 27 -22 12 12 4 33 -11 33 -5 0 -12 -5 -16
-11z"/>
<path d="M285 707 c-3 -7 -4 -105 -3 -217 l3 -205 215 0 215 0 0 215 0 215
-213 3 c-167 2 -214 0 -217 -11z m253 -61 c67 0 122 -4 122 -9 0 -4 -5 -5 -10
-2 -7 4 -9 -2 -6 -17 3 -21 1 -23 -44 -23 -27 0 -46 3 -43 8 2 4 -14 7 -37 7
-27 0 -39 4 -34 11 4 7 -1 7 -16 -1 -15 -8 -20 -8 -16 -1 4 6 3 11 -2 11 -5 0
-12 -9 -15 -21 -5 -17 -9 -19 -25 -10 -13 7 -22 7 -30 -1 -8 -8 -15 -6 -27 6
-12 12 -13 16 -3 16 10 0 9 3 -2 11 -13 9 -12 10 3 5 11 -3 20 0 24 10 3 9 12
13 22 8 9 -4 71 -7 139 -8z"/>
<path d="M380 635 c-6 -8 -10 -20 -7 -27 3 -8 6 -6 6 5 1 10 5 16 9 13 5 -3 9
1 9 9 0 19 -2 19 -17 0z"/>
<path d="M541 626 c9 -9 89 -13 89 -5 0 5 -21 9 -47 9 -25 0 -44 -2 -42 -4z"/>
<path d="M164 609 c-8 -13 15 -31 29 -22 5 3 4 -4 -2 -15 -14 -26 -14 -42 -1
-22 8 13 11 13 19 1 5 -7 14 -10 20 -7 16 11 13 36 -4 36 -13 0 -14 4 -5 20
10 18 8 20 -19 20 -16 0 -33 -5 -37 -11z"/>
<path d="M783 443 c-7 -3 -13 -13 -13 -23 0 -19 17 -30 38 -23 6 3 12 13 12
23 0 19 -17 30 -37 23z"/>
<path d="M215 430 c-4 -6 -2 -17 5 -24 8 -11 8 -15 -2 -19 -10 -4 -10 -8 2
-16 21 -15 30 -4 26 32 -3 32 -19 46 -31 27z"/>
<path d="M234 139 c-10 -17 13 -36 27 -22 12 12 4 33 -11 33 -5 0 -12 -5 -16
-11z"/>
</g>
</svg>
